<?xml version="1.0" standalone="no"?>
<!DOCTYPE svg PUBLIC "-//W3C//DTD SVG 20010904//EN"
 "http://www.w3.org/TR/2001/REC-SVG-20010904/DTD/svg10.dtd">
<svg version="1.0" xmlns="http://www.w3.org/2000/svg"
 width="552.000000pt" height="552.000000pt" viewBox="0 0 552.000000 552.000000"
 preserveAspectRatio="xMidYMid meet">
<metadata>
Created by potrace 1.14, written by Peter Selinger 2001-2017
</metadata>
<g transform="translate(0.000000,552.000000) scale(0.100000,-0.100000)"
fill="#000000" stroke="none">
<path d="M523 5489 c-39 -10 -89 -27 -111 -38 -66 -34 -172 -120 -172 -140 0
-5 -6 -11 -13 -14 -7 -3 -28 -32 -45 -65 -101 -190 -93 -397 21 -572 33 -50
135 -150 153 -150 29 0 29 -3 34 -900 2 -492 4 -450 -15 -450 -34 0 -124 -59
-185 -121 -82 -84 -85 -87 -114 -151 -42 -93 -50 -130 -50 -228 0 -84 4 -116
24 -178 11 -34 11 -50 2 -75 -6 -18 -9 -45 -7 -62 2 -16 6 -48 9 -70 6 -40 12
-78 21 -125 3 -14 8 -38 11 -55 21 -119 93 -355 150 -493 48 -115 160 -336
179 -352 8 -7 15 -17 15 -22 0 -26 250 -358 270 -358 3 0 5 99 4 220 l-1 219
34 36 c18 19 35 35 38 35 3 0 17 11 31 24 40 36 137 85 201 99 175 40 332 -17
500 -181 l33 -33 1 -132 c0 -73 1 -274 2 -447 l2 -315 -21 3 c-18 2 -22 -3
-25 -30 -9 -75 -2 -87 64 -117 153 -70 459 -171 516 -171 8 0 11 47 9 162 -3
153 -4 163 -22 163 -19 0 -19 14 -21 440 l-2 440 62 60 c145 140 337 206 505
171 87 -18 190 -80 294 -178 l50 -46 0 -434 c1 -238 -1 -444 -3 -456 -3 -20
-8 -23 -33 -20 -20 3 -31 0 -36 -11 -4 -9 -7 -95 -7 -191 l0 -175 45 1 c67 1
204 12 221 18 8 3 39 7 69 11 30 3 98 15 150 26 52 11 106 23 120 25 14 3 29
9 34 15 12 11 14 258 4 260 -5 1 -21 3 -38 4 -16 1 -34 3 -39 4 -5 0 -10 181
-11 404 -1 221 -2 422 -2 447 0 25 0 54 1 65 3 41 123 146 226 197 66 33 108
46 182 56 l62 8 1 -140 c1 -181 18 -1144 19 -1158 1 -5 6 -8 11 -8 9 0 217
100 250 120 8 5 53 32 100 61 82 50 238 161 290 206 14 12 36 31 50 43 14 11
71 67 127 123 116 114 106 86 103 285 -1 117 -17 104 131 104 l86 0 33 57
c109 181 229 447 261 577 6 27 16 55 22 61 5 7 7 13 3 13 -3 0 -1 12 5 28 6
15 13 38 15 52 3 14 9 41 14 60 5 19 11 47 14 63 l5 27 -122 1 c-67 0 -199 0
-292 -1 l-170 -1 1 413 c0 227 -2 419 -4 426 -2 6 -16 12 -31 12 l-27 0 1 363
c0 199 -1 370 -3 379 -3 14 -16 17 -71 16 -36 0 -72 0 -78 1 -9 1 -13 24 -13
79 0 72 3 82 35 132 19 30 35 60 35 66 0 6 -16 10 -40 9 -23 -1 -43 1 -45 5
-3 6 -25 119 -50 270 -3 14 -12 68 -21 120 -9 52 -18 104 -20 115 -3 11 -7 36
-10 55 -3 19 -7 42 -9 50 -2 8 -7 33 -10 55 -3 23 -8 52 -10 65 -3 14 -7 37
-10 53 -3 15 -8 42 -11 60 -8 44 -21 117 -27 147 -3 14 -9 48 -13 75 -4 28 -8
55 -10 60 -3 13 -12 66 -19 108 -6 33 -21 120 -30 172 -3 17 -9 44 -14 60 -9
29 -9 29 -11 5 -1 -14 -3 -32 -5 -40 -1 -8 -6 -35 -9 -60 -4 -25 -9 -52 -11
-60 -2 -8 -7 -31 -10 -50 -8 -46 -36 -200 -42 -225 -2 -11 -6 -38 -9 -60 -3
-21 -7 -42 -10 -46 -2 -4 -7 -29 -10 -55 -3 -27 -7 -51 -9 -54 -2 -4 -7 -29
-11 -56 -3 -27 -8 -51 -9 -54 -2 -3 -6 -24 -9 -46 -4 -22 -8 -51 -11 -64 -3
-14 -7 -41 -11 -60 -3 -19 -9 -55 -15 -80 -5 -25 -11 -61 -14 -80 -3 -19 -11
-69 -19 -110 -23 -118 -36 -194 -41 -234 -4 -32 -22 -48 -46 -42 -38 9 -39
-10 -4 -68 33 -54 35 -64 35 -142 l0 -84 -52 -1 c-29 -1 -59 -1 -65 0 -10 1
-13 -82 -12 -370 0 -205 -3 -374 -6 -378 -3 -3 -18 -5 -33 -6 l-27 0 2 -125
c1 -110 2 -166 3 -285 l0 -30 -225 3 -225 3 -1 72 c-1 40 -1 80 0 90 1 9 -1
17 -6 18 -4 0 -25 2 -46 5 -115 12 -230 128 -303 308 l-33 81 -86 3 c-47 1
-86 6 -86 10 -1 4 -2 79 -4 166 l-2 159 28 11 c16 6 29 14 29 18 0 4 5 8 11 8
14 0 93 62 127 100 28 30 81 111 80 124 0 5 4 12 9 15 17 11 46 135 49 206 1
39 -2 95 -8 125 -19 112 -109 255 -203 327 -49 37 -158 89 -205 98 -61 12
-188 13 -232 3 -24 -5 -47 -11 -53 -12 -26 -5 -144 -68 -170 -90 -17 -14 -34
-26 -38 -26 -4 0 -35 18 -67 40 -32 22 -63 40 -69 40 -5 0 -11 3 -13 8 -5 11
-66 52 -78 52 -5 0 -10 4 -10 8 0 5 -12 15 -27 23 -16 8 -33 19 -40 24 -7 6
-19 16 -27 23 -8 6 -18 12 -21 12 -3 0 -68 43 -146 95 -77 52 -144 95 -148 95
-5 0 -11 3 -13 8 -5 10 -66 52 -77 52 -5 0 -11 3 -13 8 -5 10 -97 72 -108 72
-6 0 -10 5 -10 10 0 6 -5 10 -10 10 -10 0 -67 36 -80 50 -3 3 -30 21 -60 40
-75 47 -80 53 -106 126 -57 165 -202 298 -374 344 -73 20 -188 19 -267 -1z
m692 -884 c54 -36 101 -65 105 -65 5 0 10 -3 12 -7 4 -11 506 -343 517 -343 5
0 11 -4 13 -8 2 -6 214 -150 245 -167 2 -1 5 -42 7 -91 2 -49 9 -102 15 -117
17 -42 14 -54 -16 -66 -16 -6 -53 -25 -83 -42 -113 -65 -141 -81 -370 -207
-25 -14 -79 -44 -120 -67 -41 -23 -97 -54 -125 -70 -27 -15 -134 -74 -236
-131 -102 -57 -191 -104 -198 -104 -6 0 -11 -3 -11 -8 0 -4 -13 -13 -30 -20
-28 -13 -34 -11 -87 22 -32 20 -64 36 -71 36 -6 0 -13 3 -13 8 -1 4 -3 291 -4
638 l-1 632 40 12 c54 16 150 65 183 93 41 35 94 90 110 115 9 12 17 22 18 22
2 0 47 -29 100 -65z m1212 -1152 l62 -27 3 -149 c2 -82 1 -153 -2 -157 -3 -4
-130 -8 -283 -8 -284 0 -307 -3 -307 -39 0 -18 -54 -136 -72 -159 -89 -110
-169 -167 -258 -182 l-45 -8 0 -87 0 -87 -60 -1 c-248 -3 -264 -1 -311 26 -24
14 -44 31 -44 38 -6 133 -5 138 26 155 16 10 31 20 32 25 2 4 8 7 12 7 5 0 50
25 101 55 50 30 95 55 100 55 4 0 14 6 21 13 13 12 21 17 94 58 103 58 580
336 697 406 119 71 159 93 167 93 3 0 33 -12 67 -27z"/>
</g>
</svg>
