<svg xmlns="http://www.w3.org/2000/svg" width="27" height="27" viewBox="0 0 25 25">
  <path id="Icon_awesome-bus" data-name="Icon awesome-bus" d="M23.828,6.25h-.391V3.906C23.438,1.719,18.594,0,12.5,0S1.563,1.719,1.563,3.906V6.25H1.172A1.172,1.172,0,0,0,0,7.422v3.906A1.172,1.172,0,0,0,1.172,12.5h.391v7.813a1.563,1.563,0,0,0,1.563,1.563v1.563A1.563,1.563,0,0,0,4.688,25H6.25a1.563,1.563,0,0,0,1.563-1.562V21.875h9.375v1.563A1.563,1.563,0,0,0,18.75,25h1.563a1.563,1.563,0,0,0,1.563-1.562V21.875h.313a1.232,1.232,0,0,0,1.25-1.25V12.5h.391A1.172,1.172,0,0,0,25,11.328V7.422A1.172,1.172,0,0,0,23.828,6.25ZM5.469,19.531a1.563,1.563,0,1,1,1.563-1.562A1.563,1.563,0,0,1,5.469,19.531Zm.781-5.469A1.563,1.563,0,0,1,4.688,12.5V6.25A1.563,1.563,0,0,1,6.25,4.688h12.5A1.563,1.563,0,0,1,20.313,6.25V12.5a1.563,1.563,0,0,1-1.562,1.563Zm13.281,5.469a1.563,1.563,0,1,1,1.563-1.562A1.563,1.563,0,0,1,19.531,19.531Z" fill="#498bb7"/>
</svg>
