<svg xmlns="http://www.w3.org/2000/svg" width="24.285" height="24.279" viewBox="0 0 24.285 24.279">
  <path id="Icon_awesome-instagram" data-name="Icon awesome-instagram" d="M12.14,8.152a6.225,6.225,0,1,0,6.225,6.225A6.215,6.215,0,0,0,12.14,8.152Zm0,10.272a4.047,4.047,0,1,1,4.047-4.047,4.054,4.054,0,0,1-4.047,4.047ZM20.071,7.9a1.452,1.452,0,1,1-1.452-1.452A1.449,1.449,0,0,1,20.071,7.9Zm4.123,1.474a7.185,7.185,0,0,0-1.961-5.087,7.233,7.233,0,0,0-5.087-1.961c-2-.114-8.013-.114-10.017,0A7.222,7.222,0,0,0,2.041,4.279,7.209,7.209,0,0,0,.08,9.366c-.114,2-.114,8.013,0,10.017A7.185,7.185,0,0,0,2.041,24.47a7.242,7.242,0,0,0,5.087,1.961c2,.114,8.013.114,10.017,0a7.185,7.185,0,0,0,5.087-1.961,7.232,7.232,0,0,0,1.961-5.087C24.308,17.379,24.308,11.376,24.194,9.371ZM21.6,21.534A4.1,4.1,0,0,1,19.3,23.842c-1.6.634-5.391.488-7.157.488s-5.564.141-7.157-.488a4.1,4.1,0,0,1-2.308-2.308c-.634-1.6-.488-5.391-.488-7.157s-.141-5.564.488-7.157A4.1,4.1,0,0,1,4.983,4.913c1.6-.634,5.391-.488,7.157-.488s5.564-.141,7.157.488A4.1,4.1,0,0,1,21.6,7.221c.634,1.6.488,5.391.488,7.157S22.238,19.941,21.6,21.534Z" transform="translate(0.005 -2.238)" fill="#5190B9"/>
</svg>
