<?xml version="1.0" encoding="utf-8"?>
<!-- Generator: Adobe Illustrator 26.3.1, SVG Export Plug-In . SVG Version: 6.00 Build 0)  -->
<svg version="1.1" id="Calque_1" xmlns="http://www.w3.org/2000/svg" xmlns:xlink="http://www.w3.org/1999/xlink" x="0px" y="0px"
	 viewBox="0 0 129.4 139.7" style="enable-background:new 0 0 129.4 139.7;" xml:space="preserve">
<style type="text/css">
	.st0{fill:#F3A804;stroke:#FFFFFF;stroke-miterlimit:10;}
	.st1{fill:#F3A804;stroke:#FFFFFF;}
	.st2{clip-path:url(#SVGID_00000137822773371337912610000010453410444012813985_);}
	.st3{fill:none;stroke:#FFFFFF;stroke-miterlimit:10;}
	.st4{fill:#F3A804;}
</style>
<path id="Tracé_168" class="st0" d="M53.6,26.8L31.3,12.1l4.8-3.7l20,13.3C54.8,23.1,53.9,24.9,53.6,26.8z"/>
<path id="Tracé_169" class="st0" d="M22.4,42.8l-0.2-27l5.8,0.6L28,43C26.2,42.4,24.3,42.4,22.4,42.8z"/>
<path id="Tracé_190" class="st1" d="M26.6,0.5c5.2,0,9.3,4.2,9.3,9.3s-4.2,9.3-9.3,9.3s-9.3-4.2-9.3-9.3S21.4,0.5,26.6,0.5
	C26.6,0.5,26.6,0.5,26.6,0.5z"/>
<g id="Groupe_44" transform="translate(207.283 299.948)">
	<g>
		<defs>
			<path id="SVGID_1_" d="M-92.7-249.1c-1.1,65.4-98.4,65.4-99.5,0C-191.1-314.5-93.8-314.5-92.7-249.1z"/>
		</defs>
		<clipPath id="SVGID_00000092433620848352377470000009812404199204766633_">
			<use xlink:href="#SVGID_1_"  style="overflow:visible;"/>
		</clipPath>
		
			<g id="Groupe_43" transform="translate(0 0)" style="clip-path:url(#SVGID_00000092433620848352377470000009812404199204766633_);">
			<line id="Ligne_161" class="st3" x1="-152" y1="-228.4" x2="-175" y2="-241.4"/>
			<line id="Ligne_162" class="st3" x1="-149.6" y1="-233.7" x2="-172.7" y2="-246.7"/>
			<line id="Ligne_163" class="st3" x1="-186.5" y1="-239.4" x2="-188.3" y2="-223.9"/>
			<g id="Groupe_41" transform="translate(0.583 17.184)">
				<circle id="Ellipse_58" class="st0" cx="-182.9" cy="-265.4" r="9.3"/>
				<path id="Tracé_170" class="st0" d="M-153.6-285.2l-23,12.8c1.3,1.4,2.3,3.1,2.9,5l23.5-13.7
					C-150.2-281.1-152.9-282.8-153.6-285.2z"/>
				<path id="Tracé_171" class="st0" d="M-147.4-279.7l0,7.5l5.7,0l-0.1-7.8C-143.6-279.5-145.5-279.4-147.4-279.7"/>
				<circle id="Ellipse_59" class="st0" cx="-144.9" cy="-288.8" r="9.3"/>
			</g>
			<g id="Groupe_42" transform="translate(-1.712 1.059)">
				<path id="Tracé_172" class="st0" d="M-119.9-246.4h-9.2l-0.1-3.4c-4.8-0.1-6.8-7.2-6.8-7.2h-19.7c-2.1,6.8-7,7-7,7v3.3h-20.7
					v-4.4h-3.5l-4.4,11.4v32.4h-1v3.7l14.6,6.3l-0.1-10l-1,0.1V-225c0,0,7.4-9.5,16.3,0.4l0.2,16.9h-0.9v10.3h9.7v-10.4h-0.8l0-16.8
					c0,0,8.4-10.6,17.6,0v17.2h-1.4l-0.1,10h10.7v-9.7h-1.6l-0.1-17.7c0,0,3.4-4.8,9.2-4.8"/>
				<path id="Tracé_173" class="st0" d="M-119.2-200.5v-53.9h0.5V-268l2.4,0v-3.8l-0.9-1.5h0.9l4.5-24.8l4.3,24.8h1.2l-1,1.6v3.6h3
					v13.8h1.1v15.3h13.1l-2.9,15.9h-10.2v22.6"/>
			</g>
		</g>
	</g>
</g>
<path id="Tracé_175" class="st0" d="M86.4,93.7l-0.7-47.1h1.2V33l2.3,0v-3.8l-0.9-1.5h0.9l4.5-24.8L98,27.6h1.2l-1,1.6v3.6h3v13.8
	h1.1v15.9"/>
<g>
	<path class="st4" d="M18.7,118.1c0,0.8-0.2,1.5-0.5,2.2c-0.3,0.7-0.7,1.3-1.3,1.8c0.4,0.2,0.8,0.5,1.1,0.9c0.3,0.3,0.6,0.7,0.9,1.1
		c0.2,0.4,0.4,0.9,0.6,1.3c0.1,0.5,0.2,1,0.2,1.5c0,0.8-0.1,1.5-0.4,2.3s-0.7,1.4-1.2,1.9c-0.5,0.5-1.1,1-1.8,1.3
		c-0.7,0.3-1.5,0.5-2.3,0.5H5.1c-0.2,0-0.3,0-0.5-0.2c-0.1-0.1-0.2-0.3-0.2-0.5v-19.1c0-0.4,0.2-0.7,0.6-0.7h8
		c0.8,0,1.5,0.1,2.2,0.4c0.7,0.3,1.3,0.7,1.8,1.2c0.5,0.5,0.9,1.1,1.2,1.7S18.7,117.3,18.7,118.1z M16,118.1c0-0.4-0.1-0.8-0.2-1.2
		c-0.1-0.4-0.3-0.7-0.6-0.9c-0.3-0.3-0.6-0.5-0.9-0.6c-0.4-0.1-0.7-0.2-1.2-0.2h-6v5.9h6c0.4,0,0.8-0.1,1.2-0.2
		c0.4-0.2,0.7-0.4,0.9-0.6c0.3-0.3,0.5-0.6,0.6-1S16,118.5,16,118.1z M7.1,123.8v6.5H14c0.4,0,0.8-0.1,1.2-0.3
		c0.4-0.2,0.7-0.4,1-0.7c0.3-0.3,0.5-0.7,0.7-1.1c0.2-0.4,0.2-0.8,0.2-1.3c0-0.4-0.1-0.8-0.2-1.2s-0.4-0.7-0.6-1
		c-0.3-0.3-0.6-0.5-1-0.7c-0.4-0.2-0.8-0.3-1.2-0.3H7.1z"/>
	<path class="st4" d="M25.6,117.4c0.1-0.2,0.3-0.4,0.5-0.7c0.2-0.2,0.5-0.5,0.7-0.7s0.6-0.4,1-0.5s0.8-0.2,1.2-0.2
		c0.5,0,0.9,0,1.3,0.1c0.4,0,0.8,0.1,1.1,0.2c0.4,0.1,0.7,0.2,1,0.4s0.7,0.4,1,0.7c0.1,0.1,0.2,0.2,0.4,0.3c0.1,0.1,0.2,0.3,0.2,0.5
		c0,0.1,0,0.2-0.1,0.3l-0.8,1.2c-0.1,0.2-0.3,0.2-0.4,0.2c-0.1,0-0.1,0-0.2-0.1c-0.1-0.1-0.1-0.1-0.2-0.2c-0.6-0.4-1.1-0.7-1.6-0.8
		c-0.5-0.2-1.1-0.3-1.7-0.3c-0.5,0-0.9,0.1-1.3,0.3c-0.4,0.2-0.8,0.4-1.1,0.7c-0.3,0.3-0.6,0.7-0.8,1.2c-0.2,0.5-0.3,1-0.3,1.6v10.7
		c0,0.4-0.2,0.6-0.6,0.6h-1.4c-0.4,0-0.6-0.2-0.6-0.6v-16.2c0-0.2,0.1-0.3,0.2-0.4c0.1-0.1,0.3-0.2,0.4-0.2H25
		c0.2,0,0.3,0.1,0.5,0.2c0.1,0.1,0.2,0.3,0.2,0.4V117.4z"/>
	<path class="st4" d="M48.7,130.9c-0.3,0.3-0.5,0.6-0.8,0.9c-0.3,0.3-0.6,0.5-1,0.6c-0.4,0.2-0.8,0.3-1.2,0.4s-1,0.1-1.6,0.1
		c-1.1,0-2.1-0.2-3-0.6c-0.9-0.4-1.6-0.9-2.2-1.6s-1-1.5-1.3-2.4c-0.3-0.9-0.4-1.9-0.4-2.9v-9.3c0-0.3,0.1-0.5,0.2-0.7
		c0.2-0.2,0.4-0.2,0.6-0.2h1c0.3,0,0.6,0.1,0.6,0.2s0.1,0.4,0.1,0.7v9.3c0,0.5,0.1,1.1,0.2,1.7c0.2,0.6,0.4,1.1,0.7,1.6
		c0.3,0.5,0.8,0.8,1.4,1.1c0.6,0.3,1.3,0.4,2.1,0.4c0.5,0,1-0.1,1.6-0.3c0.5-0.2,1-0.5,1.4-0.8c0.4-0.4,0.8-0.8,1-1.3
		c0.3-0.5,0.4-1.2,0.4-1.9v-10.1c0-0.4,0.2-0.6,0.6-0.6h1.4c0.4,0,0.6,0.2,0.6,0.6V132c0,0.2-0.1,0.3-0.2,0.4s-0.3,0.2-0.4,0.2h-1.4
		c-0.2,0-0.3-0.1-0.5-0.2c-0.1-0.1-0.2-0.3-0.2-0.4V130.9z"/>
	<path class="st4" d="M56.1,116.1c0.2,0.5,0.4,1,0.7,1.7s0.6,1.5,0.9,2.3c0.3,0.8,0.6,1.7,1,2.5c0.3,0.9,0.7,1.7,1,2.5
		s0.6,1.5,0.9,2.1s0.5,1.2,0.6,1.5c0.1-0.4,0.3-0.9,0.6-1.5s0.5-1.4,0.8-2.1s0.6-1.6,1-2.5c0.3-0.9,0.7-1.7,1-2.5
		c0.3-0.8,0.6-1.6,0.9-2.3s0.5-1.3,0.7-1.7c0.1-0.2,0.2-0.3,0.3-0.4c0.1-0.1,0.3-0.1,0.5-0.1h1.5c0.4,0,0.6,0.2,0.6,0.5
		c0,0,0,0.1,0,0.1c0,0,0,0.1,0,0.1c0,0,0,0.1,0,0.2l-6.5,16c0,0-0.1,0.1-0.1,0.2c0,0.1-0.1,0.1-0.1,0.2c-0.1,0-0.1,0.1-0.2,0.1
		s-0.2,0.1-0.3,0.1h-0.9c-0.1,0-0.3,0-0.3-0.1s-0.1-0.1-0.2-0.1c-0.1,0-0.1-0.1-0.1-0.2c0-0.1,0-0.1-0.1-0.2l-6.6-16
		c0,0,0-0.1,0-0.1c0-0.1,0-0.2,0-0.3c0-0.3,0.2-0.5,0.6-0.5h1.4c0.2,0,0.3,0,0.5,0.1C56,115.8,56,115.9,56.1,116.1z"/>
	<path class="st4" d="M74.2,112.4c0,0.4-0.2,0.6-0.6,0.6h-1.4c-0.4,0-0.6-0.2-0.6-0.6V111c0-0.2,0.1-0.3,0.2-0.4
		c0.1-0.1,0.3-0.2,0.4-0.2h1.4c0.2,0,0.3,0.1,0.5,0.2c0.1,0.1,0.2,0.3,0.2,0.4V112.4z M74.2,132.3c0,0.4-0.2,0.6-0.6,0.6h-1.4
		c-0.4,0-0.6-0.2-0.6-0.6v-16.2c0-0.2,0.1-0.3,0.2-0.4c0.1-0.1,0.3-0.2,0.4-0.2h1.4c0.2,0,0.3,0.1,0.5,0.2c0.1,0.1,0.2,0.3,0.2,0.4
		V132.3z"/>
	<path class="st4" d="M77.3,129.5c0-0.1-0.1-0.2-0.1-0.3c0-0.1,0-0.2,0-0.2c0-0.1,0.1-0.1,0.1-0.2c0.1,0,0.1-0.1,0.2-0.1l1.3-0.6
		c0.2-0.1,0.4-0.1,0.5,0c0.1,0.1,0.2,0.3,0.3,0.4c0.1,0.4,0.4,0.7,0.6,0.9c0.3,0.3,0.6,0.5,1,0.7c0.3,0.2,0.7,0.3,1.1,0.4
		s0.7,0.1,0.9,0.1c0.3,0,0.7,0,1.1-0.2c0.4-0.1,0.8-0.3,1.2-0.5c0.4-0.2,0.7-0.5,0.9-0.8s0.4-0.7,0.4-1.2c0-0.5-0.1-0.9-0.4-1.2
		s-0.5-0.5-0.9-0.7c-0.4-0.2-0.8-0.4-1.3-0.5c-0.5-0.1-0.9-0.2-1.4-0.4c-0.8-0.2-1.6-0.5-2.2-0.8c-0.6-0.3-1.2-0.7-1.6-1.1
		c-0.5-0.4-0.8-0.9-1-1.4s-0.4-1.1-0.4-1.8c0-0.7,0.1-1.4,0.4-2c0.3-0.6,0.7-1.1,1.2-1.5c0.5-0.4,1.1-0.8,1.8-1
		c0.7-0.2,1.5-0.4,2.3-0.4c0.7,0,1.3,0.1,1.8,0.2c0.5,0.1,1,0.3,1.3,0.6c0.4,0.3,0.8,0.6,1.1,0.9c0.3,0.4,0.7,0.8,1,1.3
		c0.1,0.2,0.2,0.3,0.2,0.5c0,0.1-0.1,0.3-0.2,0.4l-1.1,0.8c-0.2,0.1-0.4,0.2-0.5,0.1s-0.2-0.2-0.4-0.3c-0.2-0.2-0.4-0.5-0.6-0.7
		c-0.2-0.2-0.4-0.4-0.7-0.6c-0.3-0.2-0.5-0.3-0.9-0.4c-0.3-0.1-0.7-0.2-1.2-0.2c-0.4,0-0.8,0-1.2,0.1c-0.4,0.1-0.7,0.2-1,0.4
		c-0.3,0.2-0.5,0.5-0.7,0.8s-0.3,0.7-0.3,1.1c0,0.3,0.1,0.6,0.3,0.9c0.2,0.3,0.5,0.5,0.8,0.7c0.3,0.2,0.7,0.4,1.1,0.6
		c0.4,0.2,0.8,0.3,1.2,0.4c0.9,0.2,1.7,0.5,2.4,0.8c0.7,0.3,1.3,0.7,1.8,1.1s0.9,0.9,1.2,1.5c0.3,0.6,0.4,1.2,0.4,1.9
		c0,0.8-0.2,1.5-0.5,2.1s-0.8,1.2-1.3,1.6c-0.6,0.4-1.2,0.8-2,1s-1.6,0.4-2.5,0.4c-0.6,0-1.2-0.1-1.8-0.2s-1.2-0.4-1.7-0.7
		s-1-0.7-1.5-1.1S77.5,130.1,77.3,129.5z"/>
	<path class="st4" d="M95.4,112.4c0,0.4-0.2,0.6-0.6,0.6h-1.4c-0.4,0-0.6-0.2-0.6-0.6V111c0-0.2,0.1-0.3,0.2-0.4
		c0.1-0.1,0.3-0.2,0.4-0.2h1.4c0.2,0,0.3,0.1,0.5,0.2c0.1,0.1,0.2,0.3,0.2,0.4V112.4z M95.4,132.3c0,0.4-0.2,0.6-0.6,0.6h-1.4
		c-0.4,0-0.6-0.2-0.6-0.6v-16.2c0-0.2,0.1-0.3,0.2-0.4c0.1-0.1,0.3-0.2,0.4-0.2h1.4c0.2,0,0.3,0.1,0.5,0.2c0.1,0.1,0.2,0.3,0.2,0.4
		V132.3z"/>
	<path class="st4" d="M104.3,133.1c-0.4,0-0.8,0-1.3-0.2s-0.8-0.3-1.1-0.5c-0.3-0.3-0.6-0.6-0.8-1c-0.2-0.4-0.3-1-0.3-1.7v-11.9
		h-1.6c-0.2,0-0.4,0-0.5-0.1c-0.1-0.1-0.2-0.2-0.2-0.5v-1.3c0-0.2,0.1-0.4,0.2-0.4c0.1-0.1,0.3-0.1,0.5-0.1h1.6v-2.9
		c0-0.2,0-0.3,0.1-0.3c0.1-0.1,0.2-0.1,0.3-0.2c0.1,0,0.2,0,0.3-0.1s0.3-0.1,0.5-0.1c0.2,0,0.5-0.1,0.7-0.1c0.2,0,0.3,0,0.4,0
		c0.1,0,0.2,0.1,0.2,0.2s0.1,0.2,0.1,0.3s0,0.2,0,0.3v2.9h1.9c0.2,0,0.4,0,0.5,0.1s0.1,0.3,0.1,0.5v1.1c0,0.2,0,0.4-0.1,0.5
		s-0.2,0.2-0.5,0.2h-1.9v11.8c0,0.3,0.1,0.5,0.2,0.7s0.4,0.2,0.6,0.2c0.2,0,0.4,0.1,0.5,0.2s0.2,0.3,0.2,0.5v1.1
		c0,0.2-0.1,0.4-0.2,0.5C104.7,133,104.5,133.1,104.3,133.1z"/>
	<path class="st4" d="M121.1,128.9c0.1-0.1,0.2-0.1,0.3-0.2s0.2-0.1,0.3-0.1c0.1,0,0.3,0.1,0.4,0.2c0.2,0.2,0.3,0.4,0.4,0.6
		c0.1,0.2,0.2,0.3,0.3,0.4c0.1,0.1,0.1,0.2,0.2,0.2c0,0.1,0.1,0.1,0.1,0.2c0,0.1,0,0.1,0,0.2c0,0.1,0,0.2-0.1,0.3
		c-0.1,0.1-0.2,0.2-0.4,0.4c-0.4,0.3-0.8,0.6-1.2,0.8c-0.4,0.2-0.9,0.5-1.3,0.6s-1,0.3-1.5,0.4c-0.5,0.1-1.1,0.2-1.6,0.2
		c-0.8,0-1.6-0.1-2.4-0.3s-1.5-0.5-2.1-0.9c-0.7-0.4-1.3-0.9-1.8-1.4c-0.6-0.5-1-1.2-1.4-1.8s-0.7-1.4-0.9-2.1
		c-0.2-0.8-0.3-1.6-0.3-2.4c0-0.8,0.1-1.6,0.3-2.4c0.2-0.8,0.5-1.5,0.9-2.1c0.4-0.7,0.8-1.3,1.4-1.8s1.1-1,1.8-1.4
		c0.7-0.4,1.4-0.7,2.2-0.9c0.8-0.2,1.6-0.3,2.5-0.3c0.7,0,1.4,0.1,2,0.2c0.7,0.2,1.3,0.4,1.9,0.7c0.6,0.3,1.2,0.7,1.7,1.1
		c0.5,0.4,1,0.9,1.5,1.5c0.6,0.8,1,1.7,1.3,2.7c0.3,1,0.4,2.2,0.4,3.5c0,0.4-0.2,0.6-0.6,0.6h-14.4c0.2,0.7,0.4,1.4,0.8,2
		c0.4,0.6,0.9,1.2,1.4,1.6c0.5,0.5,1.1,0.8,1.8,1.1c0.7,0.3,1.4,0.4,2.1,0.4c0.5,0,1,0,1.4-0.1c0.4-0.1,0.8-0.2,1.1-0.4
		c0.3-0.2,0.6-0.3,0.9-0.5C120.5,129.4,120.8,129.2,121.1,128.9L121.1,128.9z M113.6,118.8c-0.7,0.5-1.3,1.1-1.8,1.8
		c-0.5,0.7-0.8,1.5-1,2.3h12.4c-0.1-0.8-0.3-1.4-0.7-2.1c-0.4-0.6-0.8-1.1-1.4-1.6c-0.6-0.4-1.2-0.8-1.9-1c-0.7-0.2-1.4-0.4-2.2-0.4
		c-0.6,0-1.2,0.1-1.8,0.2C114.7,118.3,114.1,118.5,113.6,118.8z"/>
</g>
</svg>
