<svg xmlns="http://www.w3.org/2000/svg" width="22" height="25" viewBox="0 0 22 25">
  <path id="Icon_awesome-train" data-name="Icon awesome-train" d="M22,4.688v12.5c0,2.53-3.026,4.688-6.385,4.688L18.708,24.3a.391.391,0,0,1-.243.7H3.536a.391.391,0,0,1-.243-.7l3.093-2.428C3.036,21.875,0,19.724,0,17.188V4.688C0,2.1,3.143,0,6.286,0h9.429C18.906,0,22,2.1,22,4.688Zm-2.357,6.641V5.859a1.175,1.175,0,0,0-1.179-1.172H3.536A1.175,1.175,0,0,0,2.357,5.859v5.469A1.175,1.175,0,0,0,3.536,12.5H18.464A1.175,1.175,0,0,0,19.643,11.328ZM11,14.453a2.734,2.734,0,1,0,2.75,2.734A2.742,2.742,0,0,0,11,14.453Z" fill="#498bb7"/>
</svg>
