<svg xmlns="http://www.w3.org/2000/svg" width="21" height="30" viewBox="0 0 21 30">
  <path id="Icon_material-tram" data-name="Icon material-tram" d="M28.5,25.41V12.75c0-4.185-3.915-5.1-9.015-5.235l1.14-2.265H25.5V3h-15V5.25h7.125l-1.14,2.28C11.79,7.665,7.5,8.6,7.5,12.75V25.41a4.81,4.81,0,0,0,3.885,4.455L9,32.25V33h3.345l3-3H21l3,3h3v-.75L24.75,30h-.12C27.165,30,28.5,27.945,28.5,25.41ZM18,27.75a2.25,2.25,0,1,1,2.25-2.25A2.247,2.247,0,0,1,18,27.75ZM25.5,21h-15V13.5h15Z" transform="translate(-7.5 -3)" fill="#498bb7"/>
</svg>
